<svg width="260" height="99" viewBox="0 0 260 99" fill="none" xmlns="http://www.w3.org/2000/svg">
<path d="M16.3094 70.1399C16.3338 69.9366 16.3787 69.7333 16.3787 69.5748C16.3955 69.3713 16.3447 69.1679 16.2342 68.9961C16.1237 68.8242 15.9596 68.6933 15.7671 68.6235C15.3594 68.465 15.3349 68.465 13.5857 68.465H11.9752H10.2749C7.91412 68.465 7.91412 68.465 7.21282 68.6682C6.39735 68.9203 5.98962 69.5301 5.60227 71.0017C5.05591 73.193 4.85204 74.3475 4.85204 75.0956C4.85204 75.9764 5.35083 76.4968 6.34842 76.6567C7.02934 76.7461 7.02934 76.7461 10.8865 76.7461C14.4705 76.8152 15.0862 76.4981 15.4042 74.4167H9.5736L10.1893 71.6115H20.5131L20.0565 73.693C19.6039 75.8639 19.4693 76.3396 19.0616 77.3519C18.2869 79.2057 16.6763 80.157 14.2259 80.2261C13.704 80.2261 11.2535 80.2261 8.4401 80.2261C3.60845 80.2261 2.56465 80.1122 1.33737 79.4333C0.452585 78.9414 0 77.9454 0 76.5185C0 75.5468 0.273182 73.9857 0.929634 71.2335C1.81442 67.4567 2.96831 65.9851 5.46772 65.3509C6.76024 65.0338 8.5298 64.9443 12.4808 64.9443C17.9933 64.9443 18.8781 65.0338 20.0361 65.7574C20.7618 66.1883 21.1247 66.9567 21.1247 68.0421C21.1024 68.7592 21.004 69.4719 20.8312 70.1683L16.3094 70.1399Z" fill="black"/>
<path d="M25.0022 65.0459H29.6096L27.1632 76.4046H37.5971L36.8021 80.1366H21.7811L25.0022 65.0459Z" fill="black"/>
<path d="M59.6719 65.5947C60.622 66.0663 61.1235 67.1314 61.1235 68.6682C61.1235 69.4812 60.9645 70.4813 60.3732 73.1929C59.8065 75.75 59.3294 77.0184 58.4895 78.0348C57.356 79.3926 55.8596 80.0268 53.3847 80.1854C52.4306 80.2301 50.4571 80.2748 48.4388 80.2748C43.1383 80.2748 41.9151 80.161 40.6919 79.5512C39.7378 79.0755 39.2404 78.0348 39.2404 76.5184C39.2404 75.6362 39.4442 74.4613 40.1007 71.4733C40.9651 67.4933 42.0537 66.046 44.7285 65.3223C46.0454 64.9605 47.5214 64.8711 51.3786 64.8711C57.4906 64.8711 58.3549 64.9361 59.6719 65.5947ZM45.3768 69.8024C44.8752 70.6602 44.1536 73.6482 44.1536 74.937C44.1536 76.3395 44.8345 76.5875 48.7365 76.5875C50.7752 76.5875 51.9372 76.5875 52.7282 76.4981C54.4978 76.3395 55.1746 75.6606 55.7006 73.4653C55.9942 72.3771 56.1839 71.2636 56.2673 70.1398C56.2673 68.7169 55.7495 68.5584 51.0973 68.5584C46.7386 68.5584 45.9884 68.7047 45.3768 69.8024Z" fill="black"/>
<path d="M65.1804 65.0459H78.8395C80.5887 65.0459 81.4938 65.1841 82.1747 65.5907C82.5587 65.7856 82.876 66.0898 83.0865 66.4647C83.297 66.8395 83.3912 67.2682 83.3572 67.6965C83.3572 68.9609 82.925 70.5423 82.3786 71.3147C81.8812 71.9936 81.3593 72.266 80.1565 72.4896C81.7222 72.6481 82.4724 73.3962 82.4724 74.7296C82.4724 76.3354 81.8119 78.0104 80.8129 78.917C79.814 79.8235 78.7049 80.1366 76.2544 80.1366H61.9756L65.1804 65.0459ZM75.4308 76.7704C76.5195 76.7704 76.7478 76.746 77.1107 76.5428C77.3521 76.3706 77.5483 76.1428 77.6824 75.8788C77.8166 75.6148 77.8848 75.3223 77.8813 75.0264C77.9054 74.8366 77.8646 74.6442 77.7655 74.4804C77.6663 74.3166 77.5146 74.191 77.3349 74.1239C77.0862 74.0304 76.9272 74.0101 75.8834 74.0101H67.745L67.1783 76.7704H75.4308ZM76.1321 71.0464C77.2004 71.0464 77.5633 70.9773 77.9017 70.7293C78.1009 70.5676 78.2614 70.3637 78.3714 70.1323C78.4815 69.9009 78.5383 69.6479 78.5378 69.3918C78.5667 69.1953 78.5226 68.9951 78.4137 68.8288C78.3048 68.6625 78.1386 68.5418 77.9465 68.4893C77.504 68.3729 77.0446 68.3344 76.5888 68.3754H68.9478L68.3811 71.0464H76.1321Z" fill="black"/>
<path d="M93.8809 65.0459H100.054L105.114 80.1366H100.074L99.1448 77.4453H89.3877L87.3694 80.1366H82.1504L93.8809 65.0459ZM98.2151 74.3028L96.2254 68.2616L91.7118 74.2824L98.2151 74.3028Z" fill="black"/>
<path d="M109.876 65.0459H114.48L112.054 76.4046H122.467L121.672 80.1366H106.651L109.876 65.0459Z" fill="black"/>
<path d="M136.42 68.7617H129.68L130.475 65.0459H148.558L147.743 68.782H141.027L138.581 80.1366H133.973L136.42 68.7617Z" fill="black"/>
<path d="M167.094 65.0457L166.356 68.4444H154.16L153.594 71.0462H165.133L164.496 74.0302H152.958L152.391 76.7011H164.778L164.052 80.1161H147.127L150.348 65.0254L167.094 65.0457Z" fill="black"/>
<path d="M170.111 65.0459H174.714L173.511 70.6805H175.958L183.383 65.0459H189.715L179.436 72.514L187.33 80.1366H180.659L175.057 74.3475H172.741L171.493 80.1366H166.886L170.111 65.0459Z" fill="black"/>
<path d="M192.092 65.0459H199.382L202.762 75.0711L210.391 65.0459H217.653L214.432 80.1366H209.947L212.67 68.4852L203.48 80.1366H199.79L195.684 68.4852L193.323 80.1366H188.871L192.092 65.0459Z" fill="black"/>
<path d="M237.787 65.0459L237.061 68.4649H224.853L224.287 71.0667H235.838L235.202 74.0507H223.65L223.084 76.7217H235.475L234.745 80.1366H217.82L221.041 65.0459H237.787Z" fill="black"/>
<path d="M240.804 65.0459H253.851C256.347 65.0459 257.664 65.2736 258.549 65.8183C259.503 66.4037 259.98 67.3347 259.98 68.6234C259.98 70.2496 259.164 74.2784 258.389 76.3842C258.086 77.2546 257.567 78.0345 256.881 78.6514C256.194 79.2684 255.363 79.7023 254.463 79.913C253.401 80.1068 252.321 80.1817 251.242 80.1366H237.579L240.804 65.0459ZM250.671 76.5387C252.237 76.5387 252.669 76.4493 253.281 76.0427C253.892 75.6362 254.304 74.8882 254.712 73.1238C254.929 72.3024 255.058 71.4601 255.095 70.6114C255.095 69.2332 254.483 68.8023 252.42 68.8023H244.616L242.957 76.5265L250.671 76.5387Z" fill="black"/>
<path d="M84.0912 95.6742C83.8099 97.0279 83.6835 97.4264 83.3573 97.841C82.7865 98.6012 81.9588 98.8858 80.1729 98.9468C79.7651 98.9468 78.5419 98.9753 77.4451 98.9753C75.0395 98.9753 74.277 98.8574 73.641 98.4061C73.2332 98.1215 73.0334 97.6215 73.0334 96.845C73.1077 95.7447 73.2949 94.6549 73.592 93.5927C74.0446 91.747 74.5869 91.0275 75.855 90.5762C76.5767 90.316 77.4451 90.2388 79.4879 90.2388C82.1015 90.2388 83.0066 90.2916 83.5652 90.4705C83.9024 90.5428 84.2009 90.7368 84.4033 91.0152C84.6058 91.2936 84.6979 91.6367 84.662 91.9787C84.6503 92.4318 84.586 92.882 84.4704 93.3203H81.9547C81.9781 93.2065 81.9918 93.0909 81.9955 92.9748C81.9955 92.3812 81.71 92.304 79.602 92.304C78.815 92.2659 78.0261 92.2999 77.2453 92.4056C76.5604 92.5886 76.3402 92.8975 76.0711 94.0033C75.8941 94.6309 75.7848 95.2755 75.7449 95.9262C75.7449 96.7393 76.12 96.8816 78.1505 96.8816C80.181 96.8816 80.442 96.8572 80.8171 96.6986C81.1922 96.5401 81.4002 96.2921 81.5429 95.6701L84.0912 95.6742Z" fill="#0D8CC7"/>
<path d="M97.8032 90.6294C98.3455 90.9017 98.6187 91.5075 98.6187 92.3856C98.5616 93.2567 98.4182 94.1201 98.1906 94.963C97.8684 96.4225 97.5953 97.1421 97.1182 97.7234C96.4699 98.4959 95.6177 98.8577 94.207 98.943C93.6647 98.9715 92.5393 98.9959 91.3895 98.9959C88.3764 98.9959 87.6751 98.9308 86.9656 98.5894C86.4233 98.317 86.1501 97.7234 86.1501 96.8616C86.1501 96.3575 86.2643 95.6867 86.6394 93.9833C87.1328 91.7148 87.7525 90.8895 89.2775 90.4749C90.0277 90.2675 90.8717 90.2188 93.0694 90.2188C96.5474 90.2188 97.0407 90.2513 97.8032 90.6294ZM89.6485 93.0279C89.2614 93.9598 89.03 94.9486 88.9635 95.955C88.9635 96.7681 89.3713 96.8982 91.5771 96.8982C92.7432 96.8982 93.3997 96.8982 93.8523 96.8453C94.8634 96.7559 95.2385 96.3697 95.5484 95.1175C95.7153 94.4975 95.8231 93.8632 95.8705 93.2231C95.8705 92.41 95.5729 92.3205 92.9226 92.3205C90.4314 92.3205 90.0032 92.41 89.6526 93.0279H89.6485Z" fill="#0D8CC7"/>
<path d="M101.591 90.3081H105.758L107.687 96.02L112.029 90.3081H116.172L114.333 98.9104H111.772L113.326 92.2839L108.086 98.9104H105.978L103.638 92.2839L102.292 98.9267H99.7563L101.591 90.3081Z" fill="#0D8CC7"/>
<path d="M118.745 90.3081H125.342C127.009 90.3081 127.409 90.361 127.902 90.6293C128.158 90.7734 128.366 90.9875 128.504 91.2461C128.641 91.5047 128.701 91.7971 128.677 92.0887C128.62 93.0206 128.433 93.94 128.122 94.8207C127.986 95.2636 127.738 95.6644 127.403 95.9852C127.067 96.3061 126.656 96.5363 126.206 96.6542C125.54 96.771 124.864 96.8187 124.188 96.7964H119.972L119.519 98.9104H116.906L118.745 90.3081ZM124.229 94.7231C124.991 94.7231 125.301 94.6337 125.546 94.3491C125.784 93.9869 125.91 93.5627 125.908 93.1295C125.925 93.0078 125.901 92.884 125.841 92.7769C125.781 92.6698 125.687 92.5852 125.574 92.5359C125.301 92.4336 125.007 92.3988 124.718 92.4343H120.901L120.412 94.7434L124.229 94.7231Z" fill="#0D8CC7"/>
<path d="M134.471 90.3081H137.99L140.872 98.9104H138.018L137.488 97.3737H131.91L130.76 98.9104H127.784L134.471 90.3081ZM136.942 95.5931L135.804 92.166L133.231 95.5931H136.942Z" fill="#0D8CC7"/>
<path d="M144.236 90.3081H148.415L152.244 96.8452L153.561 90.3081H156.044L154.221 98.9104H150.005L146.23 92.4343L144.921 98.9104H142.401L144.236 90.3081Z" fill="#0D8CC7"/>
<path d="M158.609 90.3081H161.23L159.424 98.9104H156.798L158.609 90.3081Z" fill="#0D8CC7"/>
<path d="M173.365 90.3081L172.957 92.2554H165.993L165.667 93.7393H172.252L171.889 95.4427H165.304L164.982 96.9631H172.064L171.656 98.9104H161.981L163.82 90.3081H173.365Z" fill="#0D8CC7"/>
<path d="M176.957 96.1623C176.925 96.3107 176.907 96.4618 176.904 96.6136C176.902 96.7198 176.939 96.8232 177.008 96.904C177.077 96.9849 177.173 97.0378 177.279 97.0527C177.82 97.1224 178.365 97.1522 178.91 97.1421C179.998 97.1421 181.099 97.1177 181.421 97.0771C182.208 96.9876 182.522 96.7193 182.522 96.138C182.531 96.0331 182.505 95.9283 182.448 95.8395C182.391 95.7508 182.307 95.6828 182.208 95.646C181.951 95.5566 181.951 95.5566 180.577 95.5444H178.18C177.403 95.5821 176.624 95.5165 175.864 95.3493C175.571 95.2788 175.313 95.1069 175.135 94.8642C174.957 94.6214 174.872 94.3237 174.894 94.024C174.895 93.0247 175.207 92.0504 175.786 91.2351C176.5 90.4505 177.585 90.2432 180.961 90.2432C183.533 90.2432 184.17 90.296 184.802 90.5399C185.062 90.6301 185.284 90.8051 185.432 91.0368C185.58 91.2685 185.645 91.5432 185.617 91.8165C185.61 92.1961 185.554 92.5733 185.45 92.9385H182.901C182.921 92.8407 182.934 92.7415 182.938 92.6417C182.938 92.1783 182.628 92.0888 181.116 92.0888C180.043 92.0888 178.889 92.1254 178.478 92.1661C178.363 92.1666 178.25 92.1898 178.145 92.2345C178.04 92.2791 177.944 92.3442 177.865 92.4259C177.785 92.5077 177.722 92.6045 177.68 92.7106C177.639 92.8168 177.619 92.9302 177.621 93.0442C177.617 93.123 177.632 93.2017 177.666 93.2728C177.7 93.344 177.752 93.4052 177.817 93.4507C178.037 93.593 178.049 93.593 179.097 93.6174H181.544C181.699 93.6174 182.139 93.6174 182.824 93.6581C183.778 93.6947 184.092 93.7353 184.455 93.9142C184.705 94.0208 184.914 94.2048 185.052 94.439C185.189 94.6733 185.247 94.9454 185.217 95.2151C185.222 96.1934 184.923 97.1491 184.361 97.9511C183.664 98.7642 182.579 98.9837 178.983 98.9837C176.704 98.9837 176.007 98.9431 175.334 98.8008C174.518 98.6219 174.172 98.2072 174.172 97.4999C174.177 97.0494 174.246 96.602 174.376 96.1705L176.957 96.1623Z" fill="#0D8CC7"/>
<path d="M113.994 23.2783C120.441 10.9765 129.725 3.21975 135.474 5.06543C135.118 4.66367 134.706 4.3146 134.251 4.02876C128.652 0.662627 118.537 8.59011 111.662 21.7416C104.788 34.8931 103.728 48.2763 109.326 51.6302C109.675 51.8392 110.047 52.0083 110.435 52.1343C106.296 47.6055 107.683 35.3443 113.994 23.2783Z" fill="url(#paint0_linear_15350_13283)"/>
<path d="M127.963 40.4461C119.536 40.4461 119.401 40.4461 117.668 40.194C114.917 39.7577 113.542 38.324 113.542 35.8929C113.542 33.8358 114.105 30.6526 115.605 24.6033C116.669 20.538 117.795 18.8671 120.045 18.18C121.986 17.619 121.986 17.619 128.489 17.619L133.182 17.558L137.488 17.619C138.059 13.7406 137.924 10.3501 137.052 7.82959H134.552C123.67 7.82959 118.789 8.13856 115.226 9.01261C108.294 10.7607 105.155 14.8139 102.717 25.2294C100.902 32.8357 100.152 37.1409 100.152 39.82C100.152 43.7512 101.404 46.4954 103.842 47.8654C106.778 49.4915 109.338 49.9387 118.692 50.0282C121.766 47.9711 124.999 44.6659 127.963 40.4461Z" fill="url(#paint1_linear_15350_13283)"/>
<path d="M126.553 34.023H131.853L131.902 33.9336C133.196 31.466 134.315 28.9107 135.25 26.2866H128.241L126.553 34.023Z" fill="url(#paint2_linear_15350_13283)"/>
<path d="M134.658 34.023H142.626C141.769 39.621 140.138 40.5845 130.879 40.4545C128.504 44.0482 125.62 47.2799 122.316 50.0487H123.417C131.164 50.0487 137.924 50.0487 139.364 49.9878C146.12 49.8007 150.56 47.1786 152.688 42.0643C153.814 39.3202 154.189 37.999 155.441 32.0269L156.688 26.2866H137.933C137.026 28.9393 135.932 31.5246 134.658 34.023Z" fill="black"/>
<path d="M155.384 10.0735C152.615 8.34168 150.409 7.92295 139.918 7.8457C140.526 10.6183 140.562 13.9641 140.041 17.6229C142.528 17.6229 142.781 17.7083 143.625 18.0539C144.158 18.2419 144.614 18.6016 144.92 19.0763C145.227 19.551 145.366 20.1137 145.317 20.676C145.317 21.111 145.19 21.672 145.129 22.2331H157.573C158.136 19.615 158.389 17.9319 158.389 16.3708C158.389 13.3787 157.386 11.2566 155.384 10.0735Z" fill="black"/>
<path d="M137.855 1.21928C136.401 0.363285 134.731 -0.0599122 133.044 -0.000333112C133.952 0.14605 134.824 0.463373 135.613 0.934703C142.483 5.06919 141.896 20.1924 134.3 34.7139C126.704 49.2354 114.981 57.6589 108.103 53.5244C108.614 54.0445 109.188 54.4992 109.811 54.8782C117.346 59.4111 129.733 51.077 137.484 36.2669C145.235 21.4567 145.39 5.76437 137.855 1.21928Z" fill="black"/>
<defs>
<linearGradient id="paint0_linear_15350_13283" x1="105.721" y1="27.7014" x2="135.474" y2="27.7014" gradientUnits="userSpaceOnUse">
<stop stop-color="#0294D3"/>
<stop offset="1" stop-color="#081E40"/>
</linearGradient>
<linearGradient id="paint1_linear_15350_13283" x1="100.156" y1="28.9289" x2="137.835" y2="28.9289" gradientUnits="userSpaceOnUse">
<stop stop-color="#0294D3"/>
<stop offset="1" stop-color="#081E40"/>
</linearGradient>
<linearGradient id="paint2_linear_15350_13283" x1="126.553" y1="30.1528" x2="135.262" y2="30.1528" gradientUnits="userSpaceOnUse">
<stop stop-color="#0294D3"/>
<stop offset="1" stop-color="#081E40"/>
</linearGradient>
</defs>
</svg>
