<svg width="80" height="80" viewBox="0 0 80 80" fill="none" xmlns="http://www.w3.org/2000/svg">
<path d="M19.0157 33.1922C27.871 15.6554 40.6246 4.59792 48.5221 7.22901C48.0327 6.65629 47.4669 6.15868 46.8418 5.7512C39.1515 0.95265 25.2553 12.2536 15.8119 31.0015C6.3685 49.7495 4.91224 68.8278 12.6025 73.6089C13.0827 73.9069 13.5937 74.1479 14.126 74.3276C8.44091 67.8715 10.3453 50.3928 19.0157 33.1922Z" fill="url(#paint0_linear_15350_13499)"/>
<path d="M38.2048 57.6664C26.6274 57.6664 26.4426 57.6664 24.0622 57.3071C20.2833 56.6851 18.3939 54.6413 18.3939 51.1756C18.3939 48.2432 19.1668 43.7054 21.228 35.082C22.6899 29.2866 24.2358 26.9047 27.3276 25.9253C29.9937 25.1256 29.9937 25.1255 38.9274 25.1255L45.3742 25.0386L51.2889 25.1255C52.0731 19.5968 51.8882 14.7635 50.6896 11.1703H47.2562C32.3069 11.1703 25.6025 11.6108 20.7071 12.8568C11.1853 15.3488 6.8725 21.1268 3.52306 35.9744C1.03059 46.8175 0 52.9548 0 56.7739C0 62.378 1.71952 66.2899 5.06895 68.2429C9.10172 70.5611 12.6192 71.1986 25.468 71.3261C29.6912 68.3936 34.1329 63.682 38.2048 57.6664Z" fill="url(#paint1_linear_15350_13499)"/>
<path d="M36.2671 48.5089H43.5485L43.6157 48.3814C45.3935 44.8637 46.9301 41.221 48.2141 37.4803H38.5859L36.2671 48.5089Z" fill="url(#paint2_linear_15350_13499)"/>
<path d="M47.4019 48.5089H58.3464C57.1702 56.4891 54.9298 57.8626 42.2097 57.6771C38.9483 62.8002 34.9863 67.4071 30.4475 71.3541H31.9598C42.6018 71.3541 51.8884 71.3541 53.8655 71.2672C63.1465 71.0006 69.2461 67.2626 72.1698 59.9721C73.7157 56.0602 74.231 54.1767 75.9506 45.6633L77.6645 37.4803H51.8996C50.6541 41.2618 49.1511 44.9473 47.4019 48.5089Z" fill="black"/>
<path d="M75.872 14.369C72.0689 11.9001 69.0387 11.3032 54.6272 11.1931C55.4618 15.1455 55.5122 19.9151 54.7952 25.1309C58.2119 25.1309 58.5591 25.2526 59.7186 25.7452C60.4518 26.0134 61.0781 26.5261 61.4988 27.2028C61.9196 27.8795 62.111 28.6817 62.043 29.4832C62.043 30.1033 61.8694 30.9031 61.7854 31.7029H78.8798C79.6527 27.9707 80 25.5714 80 23.346C80 19.0806 78.6221 16.0554 75.872 14.369Z" fill="black"/>
<path d="M51.7928 1.74648C49.7952 0.52623 47.5019 -0.0770544 45.1836 0.0078779C46.4309 0.216553 47.6284 0.668909 48.7122 1.34081C58.15 7.23468 57.3435 28.7934 46.9087 49.4944C36.4739 70.1954 20.3709 82.2033 10.9219 76.3094C11.6238 77.0509 12.4122 77.6991 13.2687 78.2393C23.6195 84.7011 40.6355 72.8206 51.2831 51.7082C61.9307 30.5957 62.1436 8.22568 51.7928 1.74648Z" fill="black"/>
<defs>
<linearGradient id="paint0_linear_15350_13499" x1="7.65115" y1="39.4975" x2="48.5221" y2="39.4975" gradientUnits="userSpaceOnUse">
<stop stop-color="#0294D3"/>
<stop offset="1" stop-color="#081E40"/>
</linearGradient>
<linearGradient id="paint1_linear_15350_13499" x1="0.00560106" y1="41.2482" x2="51.765" y2="41.2482" gradientUnits="userSpaceOnUse">
<stop stop-color="#0294D3"/>
<stop offset="1" stop-color="#081E40"/>
</linearGradient>
<linearGradient id="paint2_linear_15350_13499" x1="36.2671" y1="42.9917" x2="48.231" y2="42.9917" gradientUnits="userSpaceOnUse">
<stop stop-color="#0294D3"/>
<stop offset="1" stop-color="#081E40"/>
</linearGradient>
</defs>
</svg>
